<svg width="1121" height="262" viewBox="0 0 1121 262" fill="none" xmlns="http://www.w3.org/2000/svg">
<g clip-path="url(#clip0_110_2)">
<path d="M1092.26 0H28.7436C12.8689 0 0 14.8483 0 33.1646V228.835C0 247.152 12.8689 262 28.7436 262H1092.26C1108.13 262 1121 247.152 1121 228.835V33.1646C1121 14.8483 1108.13 0 1092.26 0Z" fill="#111111"/>
<path d="M153.763 158.512H167.207C157.472 179.73 138.155 194.173 115.593 194.173C83.4491 194.173 57.4872 166.536 57.4872 130.34C57.4872 93.9662 83.4491 66.3291 115.593 66.3291H121.619C141.245 66.3291 159.017 79.7019 166.744 100.563H144.336C133.21 81.3066 116.056 70.4301 100.603 74.5311C79.8948 80.0585 72.4771 108.231 80.822 139.969C89.3215 171.885 110.184 192.212 130.582 186.684C142.173 183.653 150.208 172.598 153.763 158.512ZM176.016 150.31C176.016 123.386 194.869 106.091 216.35 106.091C238.139 106.091 257.456 122.851 257.456 150.31C257.456 177.947 238.139 194.53 216.35 194.53C194.869 194.53 176.016 177.413 176.016 150.31ZM195.796 156.194C201.051 176.878 213.877 191.32 226.394 187.932C238.603 184.545 244.321 165.288 238.757 144.426C233.503 124.1 219.44 110.014 206.768 113.223C194.56 116.433 190.388 135.333 195.796 156.194ZM267.037 192.925V188.111C271.673 181.87 274.455 173.312 274.455 164.753V96.4625C274.455 87.9039 271.673 79.5236 267.192 73.4613V68.1121H289.908V164.931C289.908 173.312 292.69 181.87 297.481 188.111V192.925H267.037ZM306.135 192.925V188.111C310.771 181.87 313.552 173.312 313.552 164.753V96.4625C313.552 87.9039 310.771 79.5236 306.289 73.4613V68.1121H329.006V164.931C329.006 173.312 331.788 181.87 336.578 188.111V192.925H306.135ZM406.274 192.925L402.101 191.677C395.147 189.537 387.575 189.537 381.084 191.855C378.457 192.747 375.985 192.925 373.512 192.925C358.368 192.925 346.314 179.196 346.314 161.9C346.314 144.961 358.368 131.053 373.512 131.053C379.539 131.053 384.948 133.193 389.12 136.581V136.403C389.12 136.403 390.356 114.65 382.012 111.975C373.358 109.122 370.267 115.006 363.931 126.061L350.95 125.883C354.968 114.115 362.849 105.913 373.976 105.913C378.148 105.913 382.475 106.804 386.648 108.231C386.648 108.231 406.274 115.184 406.274 136.403V192.925ZM358.831 166.358C362.386 179.73 371.194 189.181 380.157 186.863C388.811 184.545 392.829 171.529 389.275 157.621C385.875 144.426 375.83 134.976 367.176 137.472C358.368 139.969 355.277 152.807 358.831 166.358ZM420.027 193.103V96.8191C420.027 88.0822 417.091 79.7019 411.991 73.283V68.1121H436.717V113.758C442.744 109.3 450.316 106.269 458.198 106.269C482.923 106.269 498.377 125.704 498.377 149.954C498.377 173.846 479.369 193.103 458.198 193.103C454.025 193.103 450.316 192.568 446.607 191.142C437.799 187.576 428.218 188.824 420.027 193.103ZM436.717 155.838C441.971 175.808 454.952 189.181 467.779 185.793C480.296 182.405 486.478 163.683 481.223 143.713C475.969 124.1 461.752 111.083 448.925 114.293C436.254 117.502 431.463 136.224 436.717 155.838ZM508.885 150.31C508.885 123.386 527.738 106.091 549.219 106.091C571.008 106.091 590.325 122.851 590.325 150.31C590.325 177.947 571.008 194.53 549.219 194.53C527.738 194.53 508.885 177.413 508.885 150.31ZM528.666 156.194C533.92 176.878 546.746 191.32 559.264 187.932C571.472 184.545 577.19 165.288 571.627 144.426C566.372 124.1 552.31 110.014 539.638 113.223C527.429 116.433 523.257 135.333 528.666 156.194ZM711.945 193.817L707.618 192.747C704.372 192.033 701.127 190.964 697.727 191.142C691.546 191.142 685.365 193.817 679.183 193.817C664.193 193.817 651.985 179.196 651.985 162.078C651.985 145.14 664.193 131.232 679.183 131.232C685.056 131.232 690.31 133.193 695.1 136.581V136.403C695.1 130.519 695.255 111.618 683.974 111.618C677.792 111.618 674.856 116.611 669.757 125.883H656.312C660.639 114.115 668.52 105.913 679.492 105.913C693.555 105.913 711.945 116.076 711.945 136.403V193.817ZM600.679 192.925V187.932C605.624 181.692 608.406 173.312 608.406 165.11V135.154C608.406 126.774 605.624 118.394 600.679 112.153V106.804H625.559V115.541C629.268 110.727 638.077 105.913 645.185 105.913C653.376 105.913 660.021 109.835 660.021 109.835C656.157 114.293 653.53 119.107 651.367 124.813C651.367 124.813 645.958 118.572 637.922 118.572C627.105 118.572 625.559 127.131 625.559 129.449V165.11C625.559 173.312 628.341 181.692 633.441 187.932V192.925H600.679ZM683.047 188.111C691.391 188.111 696.491 177.769 696.491 167.606C696.491 150.845 685.365 137.116 675.474 137.116C667.593 137.116 662.957 145.318 662.957 155.659C662.957 172.242 673.311 188.111 683.047 188.111ZM755.06 192.925V188.111C760.314 181.87 763.096 173.49 763.096 164.753V76.6707H748.879C741.616 76.6707 734.507 79.8802 729.716 86.1209H721.062V68.1121H821.974V86.1209H813.629C808.684 79.8802 801.266 76.6707 794.158 76.6707H780.249V164.753C780.249 173.49 782.722 181.87 787.976 188.111V192.925H755.06ZM877.143 165.644H888.579C883.17 182.583 868.953 194.708 851.799 194.708C830.01 194.708 812.702 174.56 812.702 150.31C812.702 125.526 830.01 105.378 851.799 105.378C873.28 105.378 890.742 124.991 891.051 149.419H828.31C828.928 151.558 829.237 153.876 829.855 156.373C834.8 175.986 846.545 190.072 858.444 190.072C869.571 190.072 875.598 177.947 877.143 165.644ZM827.537 142.108H874.98C869.725 123.565 857.363 111.797 845.772 111.797C834.028 111.797 827.383 124.813 827.383 138.186C827.383 139.434 827.383 140.86 827.537 142.108ZM895.996 192.925V187.754L903.569 181.692C904.496 180.979 904.805 180.622 905.269 180.087L926.594 151.38L907.896 123.386C907.277 122.495 906.35 121.425 905.423 120.712L893.833 111.797V106.804H925.049V111.797L924.431 113.223C923.04 116.076 922.577 119.999 924.585 123.03L936.948 141.395L950.547 123.386C953.02 120.177 952.556 114.828 950.084 112.332V106.804H968.783V112.332L960.747 118.037L959.201 119.642L939.575 146.031L960.283 177.056C960.901 177.947 961.365 178.482 961.983 179.017L974.037 187.754V192.925H942.821V187.754L943.439 187.041C945.911 184.366 945.293 179.909 943.439 176.878L929.376 155.659L914.232 176.343C911.759 179.73 911.759 184.901 914.695 187.754V192.925H895.996ZM996.599 192.925V188.111C1001.85 181.87 1004.63 173.49 1004.63 164.753V76.6707H990.418C983.154 76.6707 976.046 79.8802 971.255 86.1209H962.601V68.1121H1063.51V86.1209H1055.17C1050.22 79.8802 1042.81 76.6707 1035.7 76.6707H1021.79V164.753C1021.79 173.49 1024.26 181.87 1029.52 188.111V192.925H996.599Z" fill="#F6F6F6"/>
</g>
<defs>
<clipPath id="clip0_110_2">
<rect width="1121" height="262" fill="white"/>
</clipPath>
</defs>
</svg>
